<svg xmlns="http://www.w3.org/2000/svg" xmlns:xlink="http://www.w3.org/1999/xlink" version="1.1" class="marks" width="472" height="454" viewBox="0 0 472 454"><rect width="472" height="454" fill="#fff"/><g fill="none" stroke-miterlimit="10" transform="translate(65,11)"><g class="mark-group role-frame root" role="graphics-object" aria-roledescription="group mark container"><g transform="translate(0,0)"><path class="background" aria-hidden="true" d="M0.5,0.5h400v400h-400Z" stroke="#ddd"/><g><g class="mark-group role-axis" aria-hidden="true"><g transform="translate(0.5,400.5)"><path class="background" aria-hidden="true" d="M0,0h0v0h0Z" pointer-events="none"/><g><g class="mark-rule role-axis-grid" pointer-events="none"><line transform="translate(40,-400)" x2="0" y2="400" stroke="#ddd" stroke-width="1" opacity="1"/><line transform="translate(0,-400)" x2="0" y2="400" stroke="#ddd" stroke-width="1" opacity="1"/><line transform="translate(80,-400)" x2="0" y2="400" stroke="#ddd" stroke-width="1" opacity="1"/><line transform="translate(120,-400)" x2="0" y2="400" stroke="#ddd" stroke-width="1" opacity="1"/><line transform="translate(160,-400)" x2="0" y2="400" stroke="#ddd" stroke-width="1" opacity="1"/><line transform="translate(200,-400)" x2="0" y2="400" stroke="#ddd" stroke-width="1" opacity="1"/><line transform="translate(240,-400)" x2="0" y2="400" stroke="#ddd" stroke-width="1" opacity="1"/><line transform="translate(280,-400)" x2="0" y2="400" stroke="#ddd" stroke-width="1" opacity="1"/><line transform="translate(320,-400)" x2="0" y2="400" stroke="#ddd" stroke-width="1" opacity="1"/><line transform="translate(360,-400)" x2="0" y2="400" stroke="#ddd" stroke-width="1" opacity="1"/><line transform="translate(400,-400)" x2="0" y2="400" stroke="#ddd" stroke-width="1" opacity="1"/></g></g><path class="foreground" aria-hidden="true" d="" pointer-events="none" display="none"/></g></g><g class="mark-group role-axis" aria-hidden="true"><g transform="translate(0.5,0.5)"><path class="background" aria-hidden="true" d="M0,0h0v0h0Z" pointer-events="none"/><g><g class="mark-rule role-axis-grid" pointer-events="none"><line transform="translate(0,400)" x2="400" y2="0" stroke="#e1e8f0" stroke-width="1" opacity="1"/><line transform="translate(0,356)" x2="400" y2="0" stroke="#e1e8f0" stroke-width="1" opacity="1"/><line transform="translate(0,311)" x2="400" y2="0" stroke="#e1e8f0" stroke-width="1" opacity="1"/><line transform="translate(0,267)" x2="400" y2="0" stroke="#e1e8f0" stroke-width="1" opacity="1"/><line transform="translate(0,222)" x2="400" y2="0" stroke="#e1e8f0" stroke-width="1" opacity="1"/><line transform="translate(0,178)" x2="400" y2="0" stroke="#e1e8f0" stroke-width="1" opacity="1"/><line transform="translate(0,133)" x2="400" y2="0" stroke="#e1e8f0" stroke-width="1" opacity="1"/><line transform="translate(0,89)" x2="400" y2="0" stroke="#e1e8f0" stroke-width="1" opacity="1"/><line transform="translate(0,44)" x2="400" y2="0" stroke="#e1e8f0" stroke-width="1" opacity="1"/><line transform="translate(0,0)" x2="400" y2="0" stroke="#e1e8f0" stroke-width="1" opacity="1"/></g></g><path class="foreground" aria-hidden="true" d="" pointer-events="none" display="none"/></g></g><g class="mark-group role-axis" role="graphics-symbol" aria-roledescription="axis" aria-label="X-axis titled 'Epoch' for a linear scale with values from 0 to 100"><g transform="translate(0.5,400.5)"><path class="background" aria-hidden="true" d="M0,0h0v0h0Z" pointer-events="none"/><g><g class="mark-rule role-axis-tick" pointer-events="none"><line transform="translate(40,0)" x2="0" y2="5" stroke="#888" stroke-width="1" opacity="1"/><line transform="translate(0,0)" x2="0" y2="5" stroke="#888" stroke-width="1" opacity="1"/><line transform="translate(80,0)" x2="0" y2="5" stroke="#888" stroke-width="1" opacity="1"/><line transform="translate(120,0)" x2="0" y2="5" stroke="#888" stroke-width="1" opacity="1"/><line transform="translate(160,0)" x2="0" y2="5" stroke="#888" stroke-width="1" opacity="1"/><line transform="translate(200,0)" x2="0" y2="5" stroke="#888" stroke-width="1" opacity="1"/><line transform="translate(240,0)" x2="0" y2="5" stroke="#888" stroke-width="1" opacity="1"/><line transform="translate(280,0)" x2="0" y2="5" stroke="#888" stroke-width="1" opacity="1"/><line transform="translate(320,0)" x2="0" y2="5" stroke="#888" stroke-width="1" opacity="1"/><line transform="translate(360,0)" x2="0" y2="5" stroke="#888" stroke-width="1" opacity="1"/><line transform="translate(400,0)" x2="0" y2="5" stroke="#888" stroke-width="1" opacity="1"/></g><g class="mark-text role-axis-label" pointer-events="none"><text text-anchor="middle" transform="translate(40,15)" font-family="sans-serif" font-size="10px" fill="#000" opacity="1">10</text><text text-anchor="start" transform="translate(0,15)" font-family="sans-serif" font-size="10px" fill="#000" opacity="1">0</text><text text-anchor="middle" transform="translate(80,15)" font-family="sans-serif" font-size="10px" fill="#000" opacity="1">20</text><text text-anchor="middle" transform="translate(120,15)" font-family="sans-serif" font-size="10px" fill="#000" opacity="1">30</text><text text-anchor="middle" transform="translate(160,15)" font-family="sans-serif" font-size="10px" fill="#000" opacity="1">40</text><text text-anchor="middle" transform="translate(200,15)" font-family="sans-serif" font-size="10px" fill="#000" opacity="1">50</text><text text-anchor="middle" transform="translate(240,15)" font-family="sans-serif" font-size="10px" fill="#000" opacity="1">60</text><text text-anchor="middle" transform="translate(280,15)" font-family="sans-serif" font-size="10px" fill="#000" opacity="1">70</text><text text-anchor="middle" transform="translate(320,15)" font-family="sans-serif" font-size="10px" fill="#000" opacity="1">80</text><text text-anchor="middle" transform="translate(360,15)" font-family="sans-serif" font-size="10px" fill="#000" opacity="1">90</text><text text-anchor="end" transform="translate(400,15)" font-family="sans-serif" font-size="10px" fill="#000" opacity="1">100</text></g><g class="mark-rule role-axis-domain" pointer-events="none"><line transform="translate(0,0)" x2="400" y2="0" stroke="#e1e8f0" stroke-width="1" opacity="1"/></g><g class="mark-text role-axis-title" pointer-events="none"><text text-anchor="middle" transform="translate(200,36)" font-family="sans-serif" font-size="11px" font-weight="400" fill="#1c2a3a" opacity="1">Epoch</text></g></g><path class="foreground" aria-hidden="true" d="" pointer-events="none" display="none"/></g></g><g class="mark-group role-axis" role="graphics-symbol" aria-roledescription="axis" aria-label="Y-axis titled 'Loss' for a linear scale with values from 0.00 to 0.18"><g transform="translate(0.5,0.5)"><path class="background" aria-hidden="true" d="M0,0h0v0h0Z" pointer-events="none"/><g><g class="mark-rule role-axis-tick" pointer-events="none"><line transform="translate(0,400)" x2="-5" y2="0" stroke="#888" stroke-width="1" opacity="1"/><line transform="translate(0,356)" x2="-5" y2="0" stroke="#888" stroke-width="1" opacity="1"/><line transform="translate(0,311)" x2="-5" y2="0" stroke="#888" stroke-width="1" opacity="1"/><line transform="translate(0,267)" x2="-5" y2="0" stroke="#888" stroke-width="1" opacity="1"/><line transform="translate(0,222)" x2="-5" y2="0" stroke="#888" stroke-width="1" opacity="1"/><line transform="translate(0,178)" x2="-5" y2="0" stroke="#888" stroke-width="1" opacity="1"/><line transform="translate(0,133)" x2="-5" y2="0" stroke="#888" stroke-width="1" opacity="1"/><line transform="translate(0,89)" x2="-5" y2="0" stroke="#888" stroke-width="1" opacity="1"/><line transform="translate(0,44)" x2="-5" y2="0" stroke="#888" stroke-width="1" opacity="1"/><line transform="translate(0,0)" x2="-5" y2="0" stroke="#888" stroke-width="1" opacity="1"/></g><g class="mark-text role-axis-label" pointer-events="none"><text text-anchor="end" transform="translate(-13,404)" font-family="sans-serif" font-size="12px" fill="#000" opacity="1">0.00</text><text text-anchor="end" transform="translate(-13,359.55555555555554)" font-family="sans-serif" font-size="12px" fill="#000" opacity="1">0.02</text><text text-anchor="end" transform="translate(-13,315.11111111111114)" font-family="sans-serif" font-size="12px" fill="#000" opacity="1">0.04</text><text text-anchor="end" transform="translate(-13,270.6666666666667)" font-family="sans-serif" font-size="12px" fill="#000" opacity="1">0.06</text><text text-anchor="end" transform="translate(-13,226.22222222222223)" font-family="sans-serif" font-size="12px" fill="#000" opacity="1">0.08</text><text text-anchor="end" transform="translate(-13,181.77777777777777)" font-family="sans-serif" font-size="12px" fill="#000" opacity="1">0.10</text><text text-anchor="end" transform="translate(-13,137.33333333333334)" font-family="sans-serif" font-size="12px" fill="#000" opacity="1">0.12</text><text text-anchor="end" transform="translate(-13,92.88888888888884)" font-family="sans-serif" font-size="12px" fill="#000" opacity="1">0.14</text><text text-anchor="end" transform="translate(-13,48.44444444444442)" font-family="sans-serif" font-size="12px" fill="#000" opacity="1">0.16</text><text text-anchor="end" transform="translate(-13,4)" font-family="sans-serif" font-size="12px" fill="#000" opacity="1">0.18</text></g><g class="mark-rule role-axis-domain" pointer-events="none"><line transform="translate(0,400)" x2="0" y2="-400" stroke="#888" stroke-width="1" opacity="1"/></g><g class="mark-text role-axis-title" pointer-events="none"><text text-anchor="middle" transform="translate(-46.35546875,200) rotate(-90) translate(0,-3)" font-family="sans-serif" font-size="12px" font-weight="400" fill="#1c2a3a" opacity="1">Loss</text></g></g><path class="foreground" aria-hidden="true" d="" pointer-events="none" display="none"/></g></g><g class="mark-line role-mark marks" role="graphics-object" aria-roledescription="line mark container"><path aria-label="Epoch: 1; Loss: 0.165992081165" role="graphics-symbol" aria-roledescription="line mark" d="M4,31.12870852152505L8,59.727745585971405L12,70.99663284089827L16,76.98494593302408L20,81.65689044528537L24,85.18806828392877L28.000000000000004,87.54834598965115L32,89.76259231567383L36,91.67020585801863L40,93.30122073491411L44,94.50626108381482L48,95.85915406545L52,97.06065124935574L56.00000000000001,98.09058639738294L60,99.04836681154036L64,99.98780224058362L68,100.84336068895125L72,101.6506724887424L76,102.43344704310098L80,103.16833919949002L84,103.8983967569139L88,104.5445442199707L92,105.23642169104681L96,105.81508345074124L100,106.36016792721219L104,106.93644550111556L108,107.46239026387529L112.00000000000001,108.00343486997815L115.99999999999999,108.48954386181302L120,108.97763967514038L124,109.46547057893538L128,109.89164378907942L132,110.31099557876587L136,110.71693632337781L140,111.08463075425887L144,111.46765682432385L148,111.83131138483682L152,112.17430300182767L156,112.50640021430121L160,112.83482180701361L164,113.14042806625366L168,113.4517298804389L172,113.7597534391615L176,114.03476264741683L180,114.31079838010999L184,114.56408500671387L188,114.79684114456177L192,115.0554259618123L196,115.30066596137152L200,115.5274947484334L204,115.76518482632108L208,115.98731146918402L212,116.20341142018633L216,116.4363662401835L220.00000000000003,116.65432055791216L224.00000000000003,116.86909596125284L227.99999999999997,117.06598997116089L231.99999999999997,117.26602978176541L236,117.46636761559381L240,117.66107612186008L244,117.81498856014676L248,118.00923347473145L252,118.1913587782118L256,118.37921275032892L260,118.55488088395857L264,118.73422463734941L268,118.90704499350653L272,119.07426913579302L276,119.24427482816907L280,119.4077902370029L284,119.56458356645369L288,119.70985333124796L292,119.85528866449991L296,120.00400225321451L300,120.10784678988986L304,120.24874554740057L308,120.37414709726968L312,120.51123778025308L316,120.65293126636081L320,120.78445884916516L324,120.9141320652432L328,121.03718254301282L332,121.16245163811578L336,121.29007180531816L340,121.4215000470479L344,121.54700093799167L348,121.66541549894544L352,121.78512149386935L356,121.90297312206692L360,121.91264231999712L364,121.98509507709079L368,122.09817833370633L372,122.20944033728705L376,122.32215934329562L380,122.43173254860773L384,122.54857420921326L388,122.65276643964978L392,122.76371386316085L396,122.86805510520935L400,122.97319107585483" stroke="#6583ff" stroke-width="2"/></g></g><path class="foreground" aria-hidden="true" d="" display="none"/></g></g></g></svg>